<mxfile host="app.diagrams.net" modified="2020-11-05T19:53:23.055Z" agent="5.0 (Windows NT 10.0; Win64; x64) AppleWebKit/537.36 (KHTML, like Gecko) Chrome/86.0.4240.183 Safari/537.36" etag="0CT9TvvPX3qavsEPBJeW" version="13.9.2" type="github" pages="3">
  <diagram id="AtohBYzLyCiKc-Ltf5U4" name="Page-2">
    <mxGraphModel dx="1422" dy="705" grid="1" gridSize="10" guides="1" tooltips="1" connect="1" arrows="1" fold="1" page="1" pageScale="1" pageWidth="827" pageHeight="1169" math="0" shadow="0">
      <root>
        <mxCell id="g2PHfgCV-nb1NS76W22F-0" />
        <mxCell id="g2PHfgCV-nb1NS76W22F-1" parent="g2PHfgCV-nb1NS76W22F-0" />
        <mxCell id="g2PHfgCV-nb1NS76W22F-2" value="Player decides what server, clicks on NPC or server finder." style="rhombus;whiteSpace=wrap;html=1;" parent="g2PHfgCV-nb1NS76W22F-1" vertex="1">
          <mxGeometry x="374" y="280" width="126" height="130" as="geometry" />
        </mxCell>
        <mxCell id="QL0LLjVzrxc2e8b7XdGm-1" style="edgeStyle=orthogonalEdgeStyle;rounded=0;orthogonalLoop=1;jettySize=auto;html=1;exitX=0;exitY=1;exitDx=0;exitDy=0;" parent="g2PHfgCV-nb1NS76W22F-1" source="g2PHfgCV-nb1NS76W22F-3" target="QL0LLjVzrxc2e8b7XdGm-0" edge="1">
          <mxGeometry relative="1" as="geometry" />
        </mxCell>
        <mxCell id="QL0LLjVzrxc2e8b7XdGm-3" style="edgeStyle=orthogonalEdgeStyle;rounded=0;orthogonalLoop=1;jettySize=auto;html=1;exitX=1;exitY=1;exitDx=0;exitDy=0;entryX=0.5;entryY=0;entryDx=0;entryDy=0;" parent="g2PHfgCV-nb1NS76W22F-1" source="g2PHfgCV-nb1NS76W22F-3" target="QL0LLjVzrxc2e8b7XdGm-2" edge="1">
          <mxGeometry relative="1" as="geometry" />
        </mxCell>
        <mxCell id="g2PHfgCV-nb1NS76W22F-3" value="PingHandler&lt;br&gt;(Bungeecord)&lt;br&gt;Sends player and&lt;br&gt;list to client not on server" style="ellipse;whiteSpace=wrap;html=1;" parent="g2PHfgCV-nb1NS76W22F-1" vertex="1">
          <mxGeometry x="340" y="10" width="120" height="80" as="geometry" />
        </mxCell>
        <mxCell id="QL0LLjVzrxc2e8b7XdGm-8" style="edgeStyle=orthogonalEdgeStyle;rounded=0;orthogonalLoop=1;jettySize=auto;html=1;exitX=0.75;exitY=1;exitDx=0;exitDy=0;" parent="g2PHfgCV-nb1NS76W22F-1" source="QL0LLjVzrxc2e8b7XdGm-0" target="g2PHfgCV-nb1NS76W22F-2" edge="1">
          <mxGeometry relative="1" as="geometry" />
        </mxCell>
        <mxCell id="QL0LLjVzrxc2e8b7XdGm-0" value="PlayerJoinEvent&lt;br&gt;Proxy handles join event and sends player to default server&lt;br&gt;(lobby) small0003" style="shape=parallelogram;perimeter=parallelogramPerimeter;whiteSpace=wrap;html=1;fixedSize=1;" parent="g2PHfgCV-nb1NS76W22F-1" vertex="1">
          <mxGeometry x="190" y="160" width="190" height="80" as="geometry" />
        </mxCell>
        <mxCell id="QL0LLjVzrxc2e8b7XdGm-5" style="edgeStyle=orthogonalEdgeStyle;rounded=0;orthogonalLoop=1;jettySize=auto;html=1;exitX=1;exitY=0;exitDx=0;exitDy=0;entryX=0.5;entryY=1;entryDx=0;entryDy=0;" parent="g2PHfgCV-nb1NS76W22F-1" source="QL0LLjVzrxc2e8b7XdGm-2" target="QL0LLjVzrxc2e8b7XdGm-4" edge="1">
          <mxGeometry relative="1" as="geometry" />
        </mxCell>
        <mxCell id="QL0LLjVzrxc2e8b7XdGm-2" value="Puts ping request into cache in SSD." style="ellipse;whiteSpace=wrap;html=1;" parent="g2PHfgCV-nb1NS76W22F-1" vertex="1">
          <mxGeometry x="500" y="160" width="120" height="80" as="geometry" />
        </mxCell>
        <mxCell id="QL0LLjVzrxc2e8b7XdGm-6" style="edgeStyle=orthogonalEdgeStyle;rounded=0;orthogonalLoop=1;jettySize=auto;html=1;exitX=0;exitY=0.5;exitDx=0;exitDy=0;entryX=1.042;entryY=0.413;entryDx=0;entryDy=0;entryPerimeter=0;" parent="g2PHfgCV-nb1NS76W22F-1" source="QL0LLjVzrxc2e8b7XdGm-4" target="g2PHfgCV-nb1NS76W22F-3" edge="1">
          <mxGeometry relative="1" as="geometry" />
        </mxCell>
        <mxCell id="QL0LLjVzrxc2e8b7XdGm-4" value="Start (client launch Minecraft and click on multiplayer list)." style="ellipse;whiteSpace=wrap;html=1;" parent="g2PHfgCV-nb1NS76W22F-1" vertex="1">
          <mxGeometry x="690" y="20" width="120" height="80" as="geometry" />
        </mxCell>
        <mxCell id="QL0LLjVzrxc2e8b7XdGm-15" style="edgeStyle=orthogonalEdgeStyle;rounded=0;orthogonalLoop=1;jettySize=auto;html=1;exitX=1;exitY=0;exitDx=0;exitDy=0;" parent="g2PHfgCV-nb1NS76W22F-1" source="QL0LLjVzrxc2e8b7XdGm-9" target="QL0LLjVzrxc2e8b7XdGm-12" edge="1">
          <mxGeometry relative="1" as="geometry" />
        </mxCell>
        <mxCell id="QL0LLjVzrxc2e8b7XdGm-9" value="PlayerServerTransfer&lt;br&gt;Proxy handles SRV send event. Routes player to decided server." style="rounded=1;whiteSpace=wrap;html=1;" parent="g2PHfgCV-nb1NS76W22F-1" vertex="1">
          <mxGeometry x="250" y="460" width="120" height="70" as="geometry" />
        </mxCell>
        <mxCell id="QL0LLjVzrxc2e8b7XdGm-13" style="edgeStyle=orthogonalEdgeStyle;rounded=0;orthogonalLoop=1;jettySize=auto;html=1;exitX=0.5;exitY=0;exitDx=0;exitDy=0;" parent="g2PHfgCV-nb1NS76W22F-1" source="QL0LLjVzrxc2e8b7XdGm-12" target="g2PHfgCV-nb1NS76W22F-3" edge="1">
          <mxGeometry relative="1" as="geometry">
            <mxPoint x="470" y="220" as="targetPoint" />
            <Array as="points">
              <mxPoint x="675" y="250" />
              <mxPoint x="400" y="250" />
            </Array>
          </mxGeometry>
        </mxCell>
        <mxCell id="QL0LLjVzrxc2e8b7XdGm-12" value="PlayerDisconnectEvent&lt;br&gt;Proxy handles safe disconnect from server." style="rounded=1;whiteSpace=wrap;html=1;" parent="g2PHfgCV-nb1NS76W22F-1" vertex="1">
          <mxGeometry x="610" y="315" width="130" height="65" as="geometry" />
        </mxCell>
        <mxCell id="QL0LLjVzrxc2e8b7XdGm-16" value="Disconnect" style="text;html=1;strokeColor=none;fillColor=none;align=center;verticalAlign=middle;whiteSpace=wrap;rounded=0;" parent="g2PHfgCV-nb1NS76W22F-1" vertex="1">
          <mxGeometry x="379" y="430" width="70" height="30" as="geometry" />
        </mxCell>
        <mxCell id="QL0LLjVzrxc2e8b7XdGm-18" style="edgeStyle=orthogonalEdgeStyle;rounded=0;orthogonalLoop=1;jettySize=auto;html=1;exitX=1;exitY=0.5;exitDx=0;exitDy=0;entryX=0;entryY=0.75;entryDx=0;entryDy=0;" parent="g2PHfgCV-nb1NS76W22F-1" source="g2PHfgCV-nb1NS76W22F-2" target="QL0LLjVzrxc2e8b7XdGm-12" edge="1">
          <mxGeometry relative="1" as="geometry">
            <mxPoint x="500" y="345" as="sourcePoint" />
            <mxPoint x="570" y="525" as="targetPoint" />
          </mxGeometry>
        </mxCell>
        <mxCell id="QL0LLjVzrxc2e8b7XdGm-19" value="Disconnect" style="text;html=1;strokeColor=none;fillColor=none;align=center;verticalAlign=middle;whiteSpace=wrap;rounded=0;" parent="g2PHfgCV-nb1NS76W22F-1" vertex="1">
          <mxGeometry x="490" y="360" width="70" height="30" as="geometry" />
        </mxCell>
        <mxCell id="QL0LLjVzrxc2e8b7XdGm-20" value="" style="endArrow=classic;startArrow=classic;html=1;entryX=0.183;entryY=0.692;entryDx=0;entryDy=0;entryPerimeter=0;exitX=0.417;exitY=-0.043;exitDx=0;exitDy=0;exitPerimeter=0;" parent="g2PHfgCV-nb1NS76W22F-1" source="QL0LLjVzrxc2e8b7XdGm-9" target="g2PHfgCV-nb1NS76W22F-2" edge="1">
          <mxGeometry width="50" height="50" relative="1" as="geometry">
            <mxPoint x="390" y="450" as="sourcePoint" />
            <mxPoint x="440" y="400" as="targetPoint" />
            <Array as="points">
              <mxPoint x="360" y="420" />
            </Array>
          </mxGeometry>
        </mxCell>
        <mxCell id="QL0LLjVzrxc2e8b7XdGm-22" value="Disconnect" style="text;html=1;strokeColor=none;fillColor=none;align=center;verticalAlign=middle;whiteSpace=wrap;rounded=0;" parent="g2PHfgCV-nb1NS76W22F-1" vertex="1">
          <mxGeometry x="610" y="260" width="70" height="30" as="geometry" />
        </mxCell>
        <mxCell id="QL0LLjVzrxc2e8b7XdGm-23" value="After disconnect" style="text;html=1;strokeColor=none;fillColor=none;align=center;verticalAlign=middle;whiteSpace=wrap;rounded=0;" parent="g2PHfgCV-nb1NS76W22F-1" vertex="1">
          <mxGeometry x="440" y="80" width="70" height="30" as="geometry" />
        </mxCell>
        <mxCell id="QL0LLjVzrxc2e8b7XdGm-24" value="When leaves multiplayer list" style="text;html=1;strokeColor=none;fillColor=none;align=center;verticalAlign=middle;whiteSpace=wrap;rounded=0;" parent="g2PHfgCV-nb1NS76W22F-1" vertex="1">
          <mxGeometry x="640" y="100" width="100" height="40" as="geometry" />
        </mxCell>
      </root>
    </mxGraphModel>
  </diagram>
  <diagram id="1i8VJYj6oWMrKhAlNVd_" name="Page-3">
    <mxGraphModel dx="2249" dy="705" grid="1" gridSize="10" guides="1" tooltips="1" connect="1" arrows="1" fold="1" page="1" pageScale="1" pageWidth="827" pageHeight="1169" math="0" shadow="0">
      <root>
        <mxCell id="GpYP74I71T9TTt5yCPC4-0" />
        <mxCell id="GpYP74I71T9TTt5yCPC4-1" parent="GpYP74I71T9TTt5yCPC4-0" />
        <mxCell id="GpYP74I71T9TTt5yCPC4-2" value="PROXY" style="rhombus;whiteSpace=wrap;html=1;" vertex="1" parent="GpYP74I71T9TTt5yCPC4-1">
          <mxGeometry x="360" y="180" width="80" height="80" as="geometry" />
        </mxCell>
        <mxCell id="GpYP74I71T9TTt5yCPC4-3" value="SMP" style="rounded=0;whiteSpace=wrap;html=1;" vertex="1" parent="GpYP74I71T9TTt5yCPC4-1">
          <mxGeometry x="130" y="450" width="120" height="60" as="geometry" />
        </mxCell>
        <mxCell id="GpYP74I71T9TTt5yCPC4-4" value="Skyblock" style="rounded=0;whiteSpace=wrap;html=1;" vertex="1" parent="GpYP74I71T9TTt5yCPC4-1">
          <mxGeometry x="330" y="450" width="120" height="60" as="geometry" />
        </mxCell>
        <mxCell id="GpYP74I71T9TTt5yCPC4-5" value="Anarchy" style="rounded=0;whiteSpace=wrap;html=1;" vertex="1" parent="GpYP74I71T9TTt5yCPC4-1">
          <mxGeometry x="540" y="450" width="120" height="60" as="geometry" />
        </mxCell>
        <mxCell id="GpYP74I71T9TTt5yCPC4-7" value="Lobby&lt;br&gt;(sends here on join)&lt;br&gt;DEFAULT FALLBACK" style="rounded=0;whiteSpace=wrap;html=1;" vertex="1" parent="GpYP74I71T9TTt5yCPC4-1">
          <mxGeometry x="340" y="300" width="120" height="60" as="geometry" />
        </mxCell>
        <mxCell id="GpYP74I71T9TTt5yCPC4-19" style="edgeStyle=orthogonalEdgeStyle;rounded=0;orthogonalLoop=1;jettySize=auto;html=1;exitX=0.5;exitY=1;exitDx=0;exitDy=0;entryX=0.5;entryY=0;entryDx=0;entryDy=0;" edge="1" parent="GpYP74I71T9TTt5yCPC4-1" source="GpYP74I71T9TTt5yCPC4-8" target="GpYP74I71T9TTt5yCPC4-2">
          <mxGeometry relative="1" as="geometry" />
        </mxCell>
        <mxCell id="GpYP74I71T9TTt5yCPC4-8" value="Player connects" style="ellipse;whiteSpace=wrap;html=1;" vertex="1" parent="GpYP74I71T9TTt5yCPC4-1">
          <mxGeometry x="340" y="50" width="120" height="80" as="geometry" />
        </mxCell>
        <mxCell id="GpYP74I71T9TTt5yCPC4-12" value="" style="endArrow=classic;startArrow=classic;html=1;entryX=1;entryY=0.5;entryDx=0;entryDy=0;exitX=0.567;exitY=0.017;exitDx=0;exitDy=0;exitPerimeter=0;" edge="1" parent="GpYP74I71T9TTt5yCPC4-1" source="GpYP74I71T9TTt5yCPC4-17" target="GpYP74I71T9TTt5yCPC4-2">
          <mxGeometry width="50" height="50" relative="1" as="geometry">
            <mxPoint x="610" y="320" as="sourcePoint" />
            <mxPoint x="660" y="270" as="targetPoint" />
          </mxGeometry>
        </mxCell>
        <mxCell id="GpYP74I71T9TTt5yCPC4-13" value="" style="endArrow=classic;startArrow=classic;html=1;entryX=0;entryY=0.5;entryDx=0;entryDy=0;" edge="1" parent="GpYP74I71T9TTt5yCPC4-1" target="GpYP74I71T9TTt5yCPC4-2">
          <mxGeometry width="50" height="50" relative="1" as="geometry">
            <mxPoint x="375" y="450" as="sourcePoint" />
            <mxPoint x="340" y="280" as="targetPoint" />
            <Array as="points">
              <mxPoint x="310" y="380" />
            </Array>
          </mxGeometry>
        </mxCell>
        <mxCell id="GpYP74I71T9TTt5yCPC4-14" value="" style="endArrow=classic;startArrow=classic;html=1;entryX=0;entryY=0.5;entryDx=0;entryDy=0;" edge="1" parent="GpYP74I71T9TTt5yCPC4-1" target="GpYP74I71T9TTt5yCPC4-2">
          <mxGeometry width="50" height="50" relative="1" as="geometry">
            <mxPoint x="200" y="450" as="sourcePoint" />
            <mxPoint x="250" y="400" as="targetPoint" />
          </mxGeometry>
        </mxCell>
        <mxCell id="GpYP74I71T9TTt5yCPC4-15" value="" style="endArrow=classic;startArrow=classic;html=1;entryX=1;entryY=0.5;entryDx=0;entryDy=0;" edge="1" parent="GpYP74I71T9TTt5yCPC4-1" target="GpYP74I71T9TTt5yCPC4-2">
          <mxGeometry width="50" height="50" relative="1" as="geometry">
            <mxPoint x="600" y="450" as="sourcePoint" />
            <mxPoint x="650" y="400" as="targetPoint" />
          </mxGeometry>
        </mxCell>
        <mxCell id="GpYP74I71T9TTt5yCPC4-16" value="Whitelisted SMP" style="rounded=0;whiteSpace=wrap;html=1;" vertex="1" parent="GpYP74I71T9TTt5yCPC4-1">
          <mxGeometry x="-40" y="450" width="120" height="60" as="geometry" />
        </mxCell>
        <mxCell id="GpYP74I71T9TTt5yCPC4-17" value="? coming soon ?" style="rounded=0;whiteSpace=wrap;html=1;" vertex="1" parent="GpYP74I71T9TTt5yCPC4-1">
          <mxGeometry x="700" y="450" width="120" height="60" as="geometry" />
        </mxCell>
        <mxCell id="GpYP74I71T9TTt5yCPC4-18" value="" style="endArrow=classic;startArrow=classic;html=1;exitX=0.5;exitY=0;exitDx=0;exitDy=0;" edge="1" parent="GpYP74I71T9TTt5yCPC4-1" source="GpYP74I71T9TTt5yCPC4-16">
          <mxGeometry width="50" height="50" relative="1" as="geometry">
            <mxPoint x="390" y="370" as="sourcePoint" />
            <mxPoint x="360" y="230" as="targetPoint" />
          </mxGeometry>
        </mxCell>
      </root>
    </mxGraphModel>
  </diagram>
  <diagram id="1_jVN4H0eYisq_nr_KiA" name="Page-4">
    <mxGraphModel dx="1422" dy="705" grid="1" gridSize="10" guides="1" tooltips="1" connect="1" arrows="1" fold="1" page="1" pageScale="1" pageWidth="827" pageHeight="1169" math="0" shadow="0">
      <root>
        <mxCell id="0kWVmojQWlNQbfX-jIb3-0" />
        <mxCell id="0kWVmojQWlNQbfX-jIb3-1" parent="0kWVmojQWlNQbfX-jIb3-0" />
        <mxCell id="0kWVmojQWlNQbfX-jIb3-2" value="Thread&amp;nbsp;" style="rounded=1;whiteSpace=wrap;html=1;absoluteArcSize=1;arcSize=14;strokeWidth=2;" vertex="1" parent="0kWVmojQWlNQbfX-jIb3-1">
          <mxGeometry x="360" y="310" width="100" height="100" as="geometry" />
        </mxCell>
        <mxCell id="0kWVmojQWlNQbfX-jIb3-3" value="TickHandler" style="rounded=1;whiteSpace=wrap;html=1;" vertex="1" parent="0kWVmojQWlNQbfX-jIb3-1">
          <mxGeometry x="60" y="460" width="120" height="60" as="geometry" />
        </mxCell>
        <mxCell id="0kWVmojQWlNQbfX-jIb3-4" value="ChunkGen" style="rounded=1;whiteSpace=wrap;html=1;" vertex="1" parent="0kWVmojQWlNQbfX-jIb3-1">
          <mxGeometry x="220" y="460" width="120" height="60" as="geometry" />
        </mxCell>
        <mxCell id="0kWVmojQWlNQbfX-jIb3-5" value="TickHandler" style="rounded=1;whiteSpace=wrap;html=1;" vertex="1" parent="0kWVmojQWlNQbfX-jIb3-1">
          <mxGeometry x="380" y="460" width="120" height="60" as="geometry" />
        </mxCell>
      </root>
    </mxGraphModel>
  </diagram>
</mxfile>
